<svg xmlns="http://www.w3.org/2000/svg" viewBox="0 0 24 24" id="Presentation-Projector-Screen-Budget-Analytics--Streamline-Ultimate">
  <desc>
    Presentation Projector Screen Budget Analytics Streamline Icon: https://streamlinehq.com
  </desc>
  <g>
    <g>
      <path d="M6.69 13.52a1.76 1.76 0 0 0 1.52 0.79 1.56 1.56 0 0 0 1.69 -1.4 1.56 1.56 0 0 0 -1.69 -1.41 1.56 1.56 0 0 1 -1.68 -1.41 1.56 1.56 0 0 1 1.68 -1.4 1.73 1.73 0 0 1 1.52 0.79" fill="none" stroke="#f2f2f2" stroke-linecap="round" stroke-linejoin="round" stroke-width="1.5"></path>
      <path d="m8.21 14.31 0 0.94" fill="none" stroke="#f2f2f2" stroke-linecap="round" stroke-linejoin="round" stroke-width="1.5"></path>
      <path d="m8.21 7.75 0 0.94" fill="none" stroke="#f2f2f2" stroke-linecap="round" stroke-linejoin="round" stroke-width="1.5"></path>
    </g>
    <path d="m14 15.25 0 -3" fill="none" stroke="#f2f2f2" stroke-linecap="round" stroke-linejoin="round" stroke-width="1.5"></path>
    <path d="m17.5 15.25 0 -6" fill="none" stroke="#f2f2f2" stroke-linecap="round" stroke-linejoin="round" stroke-width="1.5"></path>
    <path d="M1.5 0.75h21s0.75 0 0.75 0.75V4s0 0.75 -0.75 0.75h-21S0.75 4.75 0.75 4V1.5s0 -0.75 0.75 -0.75" fill="none" stroke="#f2f2f2" stroke-linecap="round" stroke-linejoin="round" stroke-width="1.5"></path>
    <path d="M2.25 4.75h19.5V18H2.25Z" fill="none" stroke="#f2f2f2" stroke-linecap="round" stroke-linejoin="round" stroke-width="1.5"></path>
    <path d="M12 22.25 12 18" fill="none" stroke="#f2f2f2" stroke-linecap="round" stroke-linejoin="round" stroke-width="1.5"></path>
    <path d="m0.75 18 22.5 0" fill="none" stroke="#f2f2f2" stroke-linecap="round" stroke-linejoin="round" stroke-width="1.5"></path>
    <path d="M13.5 23.25c0 -0.55 -0.67 -1 -1.5 -1s-1.5 0.45 -1.5 1" fill="none" stroke="#f2f2f2" stroke-linecap="round" stroke-linejoin="round" stroke-width="1.5"></path>
  </g>
</svg>