<svg viewBox="0 0 24 24" xmlns="http://www.w3.org/2000/svg" id="Natural-Disaster-Flood-House--Streamline-Ultimate">
  <desc>
    Natural Disaster Flood House Streamline Icon: https://streamlinehq.com
  </desc>
  <path d="M0.75 18.834a8.983 8.983 0 0 1 6 -2.25c3.75 0 10.5 6.333 16.5 0.333" fill="none" stroke="#f2f2f2" stroke-linecap="round" stroke-linejoin="round" stroke-width="1.5"></path>
  <path d="M0.75 22.584a8.983 8.983 0 0 1 6 -2.25c3.75 0 10.5 6.333 16.5 0.333" fill="none" stroke="#f2f2f2" stroke-linecap="round" stroke-linejoin="round" stroke-width="1.5"></path>
  <path d="m18.75 6.886 0 9.121" fill="none" stroke="#f2f2f2" stroke-linecap="round" stroke-linejoin="round" stroke-width="1.5"></path>
  <path d="m5.25 13.332 0 -6.446" fill="none" stroke="#f2f2f2" stroke-linecap="round" stroke-linejoin="round" stroke-width="1.5"></path>
  <path d="m1.5 10.584 9.4 -9.274a1.507 1.507 0 0 1 2.194 0l9.4 9.274" fill="none" stroke="#f2f2f2" stroke-linecap="round" stroke-linejoin="round" stroke-width="1.5"></path>
  <path d="M9.75 13.605v-2.271a2.25 2.25 0 0 1 4.5 0v3.943" fill="none" stroke="#f2f2f2" stroke-linecap="round" stroke-linejoin="round" stroke-width="1.5"></path>
</svg>